<svg width="21" height="21" viewBox="0 0 21 21" fill="none" xmlns="http://www.w3.org/2000/svg">
<path d="M3.07535 13.5754C4.21899 12.4318 5.58022 11.5852 7.06539 11.0727C5.47472 9.97709 4.42969 8.14357 4.42969 6.07031C4.42969 2.72315 7.15284 0 10.5 0C13.8472 0 16.5703 2.72315 16.5703 6.07031C16.5703 8.14357 15.5253 9.97709 13.9346 11.0727C15.4197 11.5852 16.781 12.4318 17.9246 13.5754C19.9078 15.5586 21 18.1954 21 21H19.3594C19.3594 16.1149 15.3851 12.1406 10.5 12.1406C5.61492 12.1406 1.64062 16.1149 1.64062 21H0C0 18.1954 1.09221 15.5586 3.07535 13.5754ZM10.5 10.5C12.9425 10.5 14.9297 8.51287 14.9297 6.07031C14.9297 3.62775 12.9425 1.64062 10.5 1.64062C8.05748 1.64062 6.07031 3.62775 6.07031 6.07031C6.07031 8.51287 8.05748 10.5 10.5 10.5Z" fill="#747474"/>
</svg>
