<svg width="490" height="490" viewBox="0 0 490 490" fill="none" xmlns="http://www.w3.org/2000/svg">
<path d="M140.1 364.15C144.496 360.89 248.873 285.24 354.684 364.15L372.987 339.596C248.588 246.786 123.022 338.684 121.766 339.611L140.1 364.15Z" fill="#989797"/>
<path d="M138.171 228.76L166.449 200.48L194.726 228.76L216.379 207.107L188.101 178.827L216.379 150.546L194.726 128.893L166.449 157.173L138.171 128.893L116.519 150.546L144.797 178.827L116.519 207.107L138.171 228.76Z" fill="#989797"/>
<path d="M295.274 228.76L323.551 200.48L351.829 228.76L373.481 207.107L345.203 178.827L373.481 150.546L351.829 128.893L323.551 157.173L295.274 128.893L273.621 150.546L301.899 178.827L273.621 207.107L295.274 228.76Z" fill="#989797"/>
<path d="M69.086 490H420.915C459.001 490 490 459.001 490 420.914V69.086C490 30.991 459.001 0 420.914 0H69.086C30.999 0 0 30.991 0 69.086V420.915C0 459.001 30.999 490 69.086 490ZM30.625 69.086C30.625 47.882 47.881 30.625 69.086 30.625H420.915C442.119 30.625 459.376 47.882 459.376 69.086V420.915C459.376 442.119 442.119 459.376 420.915 459.376H69.086C47.882 459.376 30.625 442.119 30.625 420.915V69.086Z" fill="#989797"/>
</svg>
